<!-- icon666.com - MILLIONS vector ICONS FREE --><svg xmlns="http://www.w3.org/2000/svg" xmlns:xlink="http://www.w3.org/1999/xlink" version="1.1" id="Capa_1" x="0px" y="0px" viewBox="0 0 512.6 512.6" style="enable-background:new 0 0 512.6 512.6;" xml:space="preserve"><g><path d="M457.21,0H55.39C24.8,0,0,24.8,0,55.39v401.82c0,30.59,24.8,55.39,55.39,55.39h401.82c30.59,0,55.39-24.8,55.39-55.39 V55.39C512.6,24.8,487.8,0,457.21,0z M256.18,449.66c-107.14,0-194-86.86-194-194c0-107.15,86.86-194,194-194 c107.14,0,194,86.85,194,194C450.18,362.8,363.32,449.66,256.18,449.66z"></path><g id="Artboard"><path style="fill-rule:evenodd;clip-rule:evenodd;" d="M346.1,193.59c-2.92,30.68-15.55,105.12-21.98,139.48 c-2.72,14.54-8.07,19.41-13.26,19.89c-11.26,1.03-19.82-7.45-30.73-14.6c-17.07-11.19-26.72-18.16-43.29-29.08 c-19.16-12.62-6.74-19.56,4.18-30.9c2.85-2.97,52.49-48.12,53.45-52.21c0.12-0.51,0.23-2.42-0.9-3.43s-2.81-0.67-4.02-0.39 c-1.71,0.39-28.99,18.42-81.83,54.09c-7.74,5.31-14.75,7.9-21.04,7.77c-6.92-0.15-20.25-3.92-30.15-7.14 c-12.15-3.95-21.81-6.04-20.97-12.74c0.44-3.5,5.25-7.07,14.44-10.72c56.55-24.64,94.26-40.89,113.13-48.73 c53.88-22.41,65.07-26.31,72.37-26.43c1.6-0.03,5.19,0.36,7.52,2.25c1.96,1.59,2.5,3.74,2.76,5.25 C346.04,187.46,346.36,190.9,346.1,193.59z"></path></g></g></svg>