<svg width="1500" height="200" viewBox="0 0 1500 200" fill="none" xmlns="http://www.w3.org/2000/svg">
<path fill-rule="evenodd" clip-rule="evenodd" d="M0 200V98L35.7 91.3C37.0082 91.0575 38.3648 90.8058 39.7679 90.5454C76.5477 83.7207 145.327 70.9583 214.2 62C285.7 52.7 357.3 47.3 428.8 51.3C479.414 54.1316 529.978 61.6735 580.492 69.208C601.336 72.3171 622.172 75.425 643 78.2C714.3 87.7 785.7 93.3 857 88.2C898.562 85.1689 940.157 78.468 981.787 71.7617C1011.57 66.9632 1041.38 62.1618 1071.2 58.7C1142.7 50.3 1214.3 49.7 1285.8 51.5C1352.76 53.1856 1419.62 57.1511 1457.09 59.3729C1459.63 59.5237 1462.04 59.6665 1464.3 59.8L1500 62V200H0Z" fill="#2F1E18"/>
</svg>
