<svg id="visual" viewBox="0 0 1500 900" width="1500" height="900" xmlns="http://www.w3.org/2000/svg" xmlns:xlink="http://www.w3.org/1999/xlink" version="1.1"><rect x="0" y="0" width="1500" height="900" fill="#fff6ed"></rect><path d="M0 163L35.7 158.5C71.3 154 142.7 145 214.2 158.3C285.7 171.7 357.3 207.3 428.8 212.5C500.3 217.7 571.7 192.3 643 170.5C714.3 148.7 785.7 130.3 857 126.2C928.3 122 999.7 132 1071.2 153.5C1142.7 175 1214.3 208 1285.8 215.7C1357.3 223.3 1428.7 205.7 1464.3 196.8L1500 188L1500 0L1464.3 0C1428.7 0 1357.3 0 1285.8 0C1214.3 0 1142.7 0 1071.2 0C999.7 0 928.3 0 857 0C785.7 0 714.3 0 643 0C571.7 0 500.3 0 428.8 0C357.3 0 285.7 0 214.2 0C142.7 0 71.3 0 35.7 0L0 0Z" fill="#2f1e18" stroke-linecap="round" stroke-linejoin="miter"></path></svg>