<?xml version="1.0" encoding="utf-8"?><svg viewBox="0 0 800 800" xmlns="http://www.w3.org/2000/svg" xmlns:xlink="http://www.w3.org/1999/xlink"><style>:root>svg{display:none}:root>svg:target{display:block}</style><svg viewBox="0 0 24 24" id="chat" xmlns="http://www.w3.org/2000/svg"><path fill-rule="evenodd" clip-rule="evenodd" d="M18.312 23.351a10.447 10.447 0 01-2.185-1.151c-1.276.516-2.67.8-4.127.8-6.075 0-11-4.925-11-11S5.925 1 12 1s11 4.925 11 11c0 2.279-.694 4.398-1.882 6.155-.075 1.453.687 2.765 1.48 3.927.693 1.017.519 1.836-.774 1.91-.58.032-1.834-.005-3.512-.64zM3 12a9 9 0 0118 0 8.96 8.96 0 01-1.672 5.226c-.466.652-.226 1.874-.066 2.575.155.68.491 1.404.824 2.011a8.87 8.87 0 01-1.065-.331 8.636 8.636 0 01-2.162-1.22 1 1 0 00-1.034-.112A8.962 8.962 0 0112 21a9 9 0 01-9-9zm4-3a1 1 0 100 2h10a1 1 0 100-2H7zm0 4a1 1 0 100 2h10a1 1 0 100-2H7z"/></svg><svg viewBox="0 0 17.837 17.837" id="check" xmlns="http://www.w3.org/2000/svg"><path d="M16.145 2.571a.7.7 0 00-.99 0L6.92 10.804l-4.241-4.27a.698.698 0 00-.989 0L.204 8.019a.703.703 0 000 .99l6.217 6.258a.704.704 0 00.99 0L17.63 5.047a.7.7 0 000-.994l-1.485-1.482z"/></svg><svg viewBox="0 0 490 490" id="cloze" xmlns="http://www.w3.org/2000/svg"><path d="M456.851 0L245 212.564 33.149 0 .708 32.337l211.961 212.667L.708 457.678 33.149 490 245 277.443 456.851 490l32.441-32.322-211.961-212.674L489.292 32.337z"/></svg><svg viewBox="0 0 24 24" id="insta" xmlns="http://www.w3.org/2000/svg"><path fill-rule="evenodd" clip-rule="evenodd" d="M12 18a6 6 0 100-12 6 6 0 000 12zm0-2a4 4 0 100-8 4 4 0 000 8z"/><path d="M18 5a1 1 0 100 2 1 1 0 000-2z"/><path fill-rule="evenodd" clip-rule="evenodd" d="M1.654 4.276C1 5.56 1 7.24 1 10.6v2.8c0 3.36 0 5.04.654 6.324a6 6 0 002.622 2.622C5.56 23 7.24 23 10.6 23h2.8c3.36 0 5.04 0 6.324-.654a6 6 0 002.622-2.622C23 18.44 23 16.76 23 13.4v-2.8c0-3.36 0-5.04-.654-6.324a6 6 0 00-2.622-2.622C18.44 1 16.76 1 13.4 1h-2.8c-3.36 0-5.04 0-6.324.654a6 6 0 00-2.622 2.622zM13.4 3h-2.8c-1.713 0-2.878.002-3.778.075-.877.072-1.325.202-1.638.361a4 4 0 00-1.748 1.748c-.16.313-.29.761-.36 1.638C3.001 7.722 3 8.887 3 10.6v2.8c0 1.713.002 2.878.075 3.778.072.877.202 1.325.361 1.638a4 4 0 001.748 1.748c.313.16.761.29 1.638.36.9.074 2.065.076 3.778.076h2.8c1.713 0 2.878-.002 3.778-.075.877-.072 1.325-.202 1.638-.361a4 4 0 001.748-1.748c.16-.313.29-.761.36-1.638.074-.9.076-2.065.076-3.778v-2.8c0-1.713-.002-2.878-.075-3.778-.072-.877-.202-1.325-.361-1.638a4 4 0 00-1.748-1.748c-.313-.16-.761-.29-1.638-.36C16.278 3.001 15.113 3 13.4 3z"/></svg><svg viewBox="0 0 40 41" id="phone" xmlns="http://www.w3.org/2000/svg"><path d="M38.951 29.856l-5.594-5.582c-1.998-1.994-5.394-1.196-6.193 1.395-.6 1.795-2.597 2.791-4.395 2.393-3.996-.997-9.39-6.18-10.389-10.367-.6-1.794.6-3.788 2.398-4.386 2.597-.797 3.396-4.187 1.398-6.18l-5.594-5.582C8.984.15 6.587.15 5.188 1.547L1.392 5.335c-3.796 3.987.4 14.553 9.79 23.923 9.39 9.37 19.978 13.756 23.973 9.769l3.796-3.788c1.399-1.595 1.399-3.987 0-5.383z"/></svg><svg viewBox="0 0 512.6 512.6" id="tel" xmlns="http://www.w3.org/2000/svg"><path d="M457.21 0H55.39C24.8 0 0 24.8 0 55.39v401.82c0 30.59 24.8 55.39 55.39 55.39h401.82c30.59 0 55.39-24.8 55.39-55.39V55.39C512.6 24.8 487.8 0 457.21 0zM256.18 449.66c-107.14 0-194-86.86-194-194 0-107.15 86.86-194 194-194s194 86.85 194 194c0 107.14-86.86 194-194 194z"/><path d="M346.1 193.59c-2.92 30.68-15.55 105.12-21.98 139.48-2.72 14.54-8.07 19.41-13.26 19.89-11.26 1.03-19.82-7.45-30.73-14.6-17.07-11.19-26.72-18.16-43.29-29.08-19.16-12.62-6.74-19.56 4.18-30.9 2.85-2.97 52.49-48.12 53.45-52.21.12-.51.23-2.42-.9-3.43s-2.81-.67-4.02-.39c-1.71.39-28.99 18.42-81.83 54.09-7.74 5.31-14.75 7.9-21.04 7.77-6.92-.15-20.25-3.92-30.15-7.14-12.15-3.95-21.81-6.04-20.97-12.74.44-3.5 5.25-7.07 14.44-10.72 56.55-24.64 94.26-40.89 113.13-48.73 53.88-22.41 65.07-26.31 72.37-26.43 1.6-.03 5.19.36 7.52 2.25 1.96 1.59 2.5 3.74 2.76 5.25.26 1.51.58 4.95.32 7.64z"/></svg><svg viewBox="0 0 24 24" id="telegram" xmlns="http://www.w3.org/2000/svg"><path fill-rule="evenodd" clip-rule="evenodd" d="M23.112 4.494c.318-1.55-1.205-2.837-2.68-2.267L2.342 9.216c-1.647.637-1.72 2.941-.117 3.682l3.94 1.818 1.873 6.559a1 1 0 001.67.432l2.886-2.887 4.043 3.033a2 2 0 003.16-1.198l3.315-16.16zM3.063 11.082l18.09-6.99-3.316 16.161L13.1 16.7a1 1 0 00-1.307.093l-1.236 1.236.371-2.043 7.28-7.279a1 1 0 00-1.204-1.575L6.95 12.876l-3.888-1.794zm5.114 3.397l.606 2.123.233-1.281a1 1 0 01.277-.528l2.22-2.22-3.336 1.906z"/></svg><svg viewBox="0 0 24 24" id="vk" xmlns="http://www.w3.org/2000/svg"><path d="M3.4 3.4l-.355-.352.004-.004.35.356zm0 17.2l-.352.355-.004-.004.356-.351zm17.2 0l.355.352-.004.004-.351-.356zm0-17.2l.352-.355.004.004-.356.351zM5.373 8.087l-.5.01a.5.5 0 01.5-.51v.5zm7.534 8.32h.5a.5.5 0 01-.5.5v-.5zm0-2.974h-.5a.5.5 0 01.55-.497l-.05.497zm3.446 2.974v.5a.5.5 0 01-.476-.348l.476-.152zm2.367 0l.483-.13a.5.5 0 01-.483.63v-.5zm-3.42-4.174l-.223.448a.5.5 0 01-.037-.875l.26.427zm1.893-1.772l.409.288-.41-.288zM18.22 8.08v-.5a.5.5 0 01.49.6l-.49-.1zm-2.147 0l-.48-.136a.5.5 0 01.48-.364v.5zm-3.166 3.293l.053.498a.5.5 0 01-.553-.498h.5zm0-3.286v-.5a.5.5 0 01.5.5h-.5zm-2.154 0h-.5a.5.5 0 01.5-.5v.5zm0 5.76h.5a.5.5 0 01-.621.485l.121-.485zm-3.086-5.76v-.5a.5.5 0 01.5.49l-.5.01zM1.5 11.6c0-2.25-.001-3.985.18-5.334.182-1.363.558-2.403 1.365-3.218l.71.704c-.593.598-.917 1.395-1.084 2.647C2.5 7.665 2.5 9.323 2.5 11.6h-1zm0 .8v-.8h1v.8h-1zm1.544 8.551c-.806-.818-1.182-1.86-1.365-3.222-.18-1.348-.18-3.083-.18-5.329h1c0 2.274.002 3.93.172 5.196.167 1.252.491 2.05 1.085 2.653l-.712.702zM11.6 22.5c-2.25 0-3.986.001-5.334-.18-1.363-.182-2.403-.558-3.218-1.365l.704-.71c.598.593 1.395.917 2.647 1.084 1.266.17 2.924.171 5.2.171v1zm.8 0h-.8v-1h.8v1zm8.551-1.544c-.818.806-1.86 1.182-3.222 1.365-1.349.18-3.083.179-5.33.179v-1c2.275 0 3.93-.001 5.197-.17 1.252-.168 2.05-.492 2.653-1.086l.702.712zM22.5 12.4c0 2.25.001 3.986-.18 5.334-.182 1.363-.558 2.403-1.365 3.218l-.71-.704c.593-.598.917-1.395 1.084-2.647.17-1.267.17-2.924.17-5.201h1zm0-.8v.8h-1v-.8h1zm-1.544-8.551c.806.818 1.182 1.86 1.364 3.222.181 1.349.18 3.083.18 5.329h-1c0-2.274-.001-3.93-.17-5.196-.168-1.252-.492-2.05-1.086-2.653l.712-.702zM12.4 1.5c2.25 0 3.985-.001 5.334.18 1.362.182 2.403.558 3.218 1.365l-.704.71c-.599-.593-1.395-.917-2.647-1.084C16.334 2.5 14.677 2.5 12.4 2.5v-1zm-.8 0h.8v1h-.8v-1zM3.049 3.044c.818-.806 1.86-1.182 3.222-1.365C7.62 1.5 9.354 1.5 11.6 1.5v1c-2.274 0-3.93.001-5.196.17-1.252.168-2.05.492-2.653 1.086l-.702-.712zm9.59 13.863c-2.401 0-4.339-.827-5.681-2.384-1.333-1.545-2.03-3.751-2.085-6.426l1-.02c.052 2.524.708 4.478 1.842 5.793 1.124 1.304 2.767 2.037 4.925 2.037v1zm.008 0h-.007v-1h.007v1zm.26 0h-.26v-1h.26v1zm.5-3.474v2.974h-1v-2.974h1zm2.47 3.126c-.458-1.428-1.582-2.485-3.02-2.628l.1-.995c1.907.19 3.317 1.586 3.872 3.318l-.952.305zm2.843.348h-2.367v-1h2.367v1zm-.876-3.27a7.08 7.08 0 011.359 2.64l-.966.26a6.078 6.078 0 00-1.166-2.267l.773-.634zm-2.321-1.851a7.08 7.08 0 012.321 1.85l-.773.634a6.079 6.079 0 00-1.994-1.589l.446-.895zm2.079-1.037a6.854 6.854 0 01-2.042 1.911l-.52-.854a5.854 5.854 0 001.744-1.632l.818.575zM18.71 8.18a6.854 6.854 0 01-1.108 2.569l-.818-.575a5.854 5.854 0 00.946-2.194l.98.2zm-2.637-.6h2.147v1h-2.147v-1zm-3.22 3.296c.497-.053 1.07-.376 1.592-.926a4.938 4.938 0 001.147-2.006l.963.272a5.937 5.937 0 01-1.385 2.423c-.616.648-1.393 1.144-2.21 1.232l-.106-.995zm.554-2.79v3.287h-1V8.087h1zm-2.654-.5h2.154v1h-2.154v-1zm-.5 6.26v-5.76h1v5.76h-1zM8.167 8.078c.07 3.676 1.668 5.025 2.707 5.285l-.242.97c-1.627-.407-3.39-2.285-3.465-6.236l1-.019zm-2.794-.49h2.294v1H5.373v-1z"/></svg><svg viewBox="0 0 24 24" id="whatsapp" xmlns="http://www.w3.org/2000/svg"><path d="M17.6 6.32A7.851 7.851 0 0012 4a7.94 7.94 0 00-6.88 11.89L4 20l4.2-1.1a7.93 7.93 0 003.79 1 8 8 0 008-7.93 8 8 0 00-2.39-5.65zM12 18.53a6.58 6.58 0 01-3.36-.92l-.24-.15-2.49.66.66-2.43-.16-.25a6.6 6.6 0 0110.25-8.17 6.65 6.65 0 012 4.66 6.66 6.66 0 01-6.66 6.6zm3.61-4.94c-.2-.1-1.17-.58-1.35-.64-.18-.06-.32-.1-.45.1a9.004 9.004 0 01-.63.77c-.11.14-.23.15-.43 0a5.33 5.33 0 01-2.69-2.35c-.21-.35.2-.33.58-1.08a.38.38 0 000-.35c0-.1-.45-1.08-.61-1.47-.16-.39-.32-.33-.45-.34h-.39a.71.71 0 00-.53.25A2.19 2.19 0 008 10.17a3.82 3.82 0 00.81 2.05 8.89 8.89 0 003.39 3 3.85 3.85 0 002.38.5 1.999 1.999 0 001.33-.94 1.62 1.62 0 00.12-.94c-.09-.1-.22-.15-.42-.25z"/></svg></svg>