<svg id="visual" viewBox="0 0 1500 200" width="1500" height="200" xmlns="http://www.w3.org/2000/svg" xmlns:xlink="http://www.w3.org/1999/xlink" version="1.1"><rect x="0" y="0" width="1500" height="200" fill="#2f1e18"></rect><path d="M0 98L35.7 91.3C71.3 84.7 142.7 71.3 214.2 62C285.7 52.7 357.3 47.3 428.8 51.3C500.3 55.3 571.7 68.7 643 78.2C714.3 87.7 785.7 93.3 857 88.2C928.3 83 999.7 67 1071.2 58.7C1142.7 50.3 1214.3 49.7 1285.8 51.5C1357.3 53.3 1428.7 57.7 1464.3 59.8L1500 62L1500 0L1464.3 0C1428.7 0 1357.3 0 1285.8 0C1214.3 0 1142.7 0 1071.2 0C999.7 0 928.3 0 857 0C785.7 0 714.3 0 643 0C571.7 0 500.3 0 428.8 0C357.3 0 285.7 0 214.2 0C142.7 0 71.3 0 35.7 0L0 0Z" fill="#fff6ed" stroke-linecap="round" stroke-linejoin="miter"></path></svg>
